<?xml version="1.0" standalone="no"?>
<svg id="barcode" width="234px" height="104px" x="0px" y="0px" viewBox="0 0 234 104" xmlns="http://www.w3.org/2000/svg" version="1.1" style="transform: translate(0,0)"><rect x="0" y="0" width="234" height="104" style="fill:#ffffff;"></rect><g transform="translate(10, 0)" style="fill:#000000;"><text style="font: 18px Arial, Helvetica" text-anchor="start" x="0" y="103">9</text></g><g transform="translate(34, 0)" style="fill:#000000;"><rect x="0" y="0" width="2" height="94"></rect><rect x="4" y="0" width="2" height="94"></rect><text style="font: 18px Arial, Helvetica" text-anchor="middle" x="3" y="112"></text></g><g transform="translate(40, 0)" style="fill:#000000;"><rect x="2" y="0" width="6" height="85"></rect><rect x="10" y="0" width="4" height="85"></rect><rect x="20" y="0" width="2" height="85"></rect><rect x="26" y="0" width="2" height="85"></rect><rect x="30" y="0" width="2" height="85"></rect><rect x="36" y="0" width="6" height="85"></rect><rect x="48" y="0" width="4" height="85"></rect><rect x="54" y="0" width="2" height="85"></rect><rect x="58" y="0" width="2" height="85"></rect><rect x="64" y="0" width="6" height="85"></rect><rect x="76" y="0" width="4" height="85"></rect><rect x="82" y="0" width="2" height="85"></rect><text style="font: 18px Arial, Helvetica" text-anchor="middle" x="42" y="103">780000</text></g><g transform="translate(124, 0)" style="fill:#000000;"><rect x="2" y="0" width="2" height="94"></rect><rect x="6" y="0" width="2" height="94"></rect><text style="font: 18px Arial, Helvetica" text-anchor="middle" x="5" y="112"></text></g><g transform="translate(134, 0)" style="fill:#000000;"><rect x="0" y="0" width="6" height="85"></rect><rect x="10" y="0" width="2" height="85"></rect><rect x="14" y="0" width="6" height="85"></rect><rect x="24" y="0" width="2" height="85"></rect><rect x="28" y="0" width="6" height="85"></rect><rect x="38" y="0" width="2" height="85"></rect><rect x="42" y="0" width="6" height="85"></rect><rect x="52" y="0" width="2" height="85"></rect><rect x="56" y="0" width="6" height="85"></rect><rect x="66" y="0" width="2" height="85"></rect><rect x="70" y="0" width="4" height="85"></rect><rect x="76" y="0" width="4" height="85"></rect><text style="font: 18px Arial, Helvetica" text-anchor="middle" x="42" y="103">000002</text></g><g transform="translate(218, 0)" style="fill:#000000;"><rect x="0" y="0" width="2" height="94"></rect><rect x="4" y="0" width="2" height="94"></rect><text style="font: 18px Arial, Helvetica" text-anchor="middle" x="3" y="112"></text></g></svg>